<svg width="40" height="40" viewBox="0 0 40 40" fill="none" xmlns="http://www.w3.org/2000/svg">
<path d="M32.6719 13.8437C32.25 13.7031 31.8281 13.5703 31.4062 13.4453C31.4766 13.1562 31.5391 12.8672 31.6016 12.5781C32.5625 7.92187 31.9297 4.17969 29.7969 2.94531C27.7422 1.76562 24.3906 2.99219 21 5.94531C20.6641 6.23437 20.3359 6.53906 20.0234 6.84375C19.8125 6.64062 19.5938 6.4375 19.375 6.24219C15.8203 3.08594 12.2578 1.75781 10.125 3C8.07812 4.1875 7.46875 7.71094 8.32812 12.1172C8.41406 12.5547 8.50781 12.9844 8.61719 13.4219C8.11719 13.5625 7.625 13.7187 7.16406 13.8828C2.99219 15.3281 0 17.6094 0 19.9688C0 22.4062 3.1875 24.8516 7.52344 26.3359C7.875 26.4531 8.22656 26.5703 8.58594 26.6719C8.46875 27.1406 8.36719 27.6016 8.27344 28.0781C7.45312 32.4141 8.09375 35.8516 10.1406 37.0312C12.25 38.25 15.7969 37 19.25 33.9766C19.5234 33.7344 19.7969 33.4844 20.0703 33.2188C20.4141 33.5547 20.7734 33.875 21.1328 34.1875C24.4766 37.0625 27.7812 38.2266 29.8203 37.0469C31.9297 35.8281 32.6172 32.1328 31.7266 27.6328C31.6562 27.2891 31.5781 26.9375 31.4922 26.5781C31.7422 26.5078 31.9844 26.4297 32.2266 26.3516C36.7344 24.8594 40 22.4453 40 19.9688C40 17.6016 36.9219 15.3047 32.6719 13.8437ZM22.1016 7.21094C25.0078 4.67969 27.7188 3.6875 28.9531 4.39844C30.2734 5.15625 30.7812 8.21875 29.9531 12.2422C29.8984 12.5078 29.8438 12.7656 29.7734 13.0234C28.0391 12.6328 26.2812 12.3516 24.5156 12.1953C23.5 10.7422 22.3906 9.35156 21.1875 8.04687C21.4922 7.75781 21.7891 7.48438 22.1016 7.21094ZM13.0625 24.0234C13.4609 24.7031 13.8672 25.3828 14.2969 26.0469C13.0781 25.9141 11.8672 25.7187 10.6719 25.4609C11.0156 24.3359 11.4453 23.1719 11.9453 21.9844C12.3047 22.6719 12.6719 23.3516 13.0625 24.0234ZM10.6953 14.625C11.8203 14.375 13.0156 14.1719 14.2578 14.0156C13.8438 14.6641 13.4375 15.3281 13.0547 16C12.6719 16.6641 12.2969 17.3437 11.9453 18.0312C11.4531 16.8672 11.0391 15.7266 10.6953 14.625ZM12.8359 20.0078C13.3516 18.9297 13.9141 17.875 14.5078 16.8359C15.1016 15.7969 15.7422 14.7891 16.4141 13.7969C17.5859 13.7109 18.7812 13.6641 20 13.6641C21.2188 13.6641 22.4219 13.7109 23.5859 13.7969C24.25 14.7812 24.8828 15.7891 25.4844 16.8203C26.0859 17.8516 26.6484 18.9062 27.1797 19.9766C26.6562 21.0547 26.0937 22.1172 25.4922 23.1641C24.8984 24.2031 24.2656 25.2109 23.6016 26.2109C22.4375 26.2969 21.2266 26.3359 20 26.3359C18.7734 26.3359 17.5859 26.2969 16.4375 26.2266C15.7578 25.2344 15.1172 24.2188 14.5156 23.1797C13.9141 22.1406 13.3594 21.0859 12.8359 20.0078ZM26.9453 24.0078C27.3438 23.3203 27.7188 22.625 28.0859 21.9219C28.5859 23.0547 29.0234 24.2031 29.4062 25.3828C28.1953 25.6562 26.9688 25.8672 25.7344 26.0078C26.1562 25.3516 26.5547 24.6797 26.9453 24.0078ZM28.0703 18.0312C27.7031 17.3437 27.3281 16.6562 26.9375 15.9844C26.5547 15.3203 26.1562 14.6641 25.7422 14.0156C27 14.1719 28.2031 14.3828 29.3281 14.6406C28.9688 15.7969 28.5469 16.9219 28.0703 18.0312ZM20.0156 9.24219C20.8359 10.1328 21.6094 11.0703 22.3281 12.0391C20.7812 11.9688 19.2266 11.9688 17.6797 12.0391C18.4453 11.0312 19.2344 10.0938 20.0156 9.24219ZM10.9531 4.45312C12.2656 3.6875 15.1797 4.78125 18.25 7.5C18.4453 7.67187 18.6406 7.85937 18.8438 8.04687C17.6328 9.35156 16.5156 10.7422 15.4922 12.1953C13.7266 12.3516 11.9766 12.625 10.2422 13.0078C10.1406 12.6094 10.0547 12.2031 9.96875 11.7969C9.23438 8.01562 9.71875 5.16406 10.9531 4.45312ZM9.03906 25.0469C8.71094 24.9531 8.39062 24.8516 8.07031 24.7422C6.40625 24.2188 4.51562 23.3906 3.14844 22.3047C2.35938 21.7578 1.82812 20.9141 1.67969 19.9688C1.67969 18.5391 4.14844 16.7109 7.71094 15.4687C8.15625 15.3125 8.60938 15.1719 9.0625 15.0391C9.59375 16.7344 10.2344 18.3984 10.9766 20.0078C10.2266 21.6406 9.57812 23.3281 9.03906 25.0469ZM18.1484 32.7031C16.8594 33.8828 15.3672 34.8203 13.7422 35.4609C12.875 35.875 11.875 35.9141 10.9844 35.5625C9.74219 34.8438 9.22656 32.0859 9.92969 28.375C10.0156 27.9375 10.1094 27.5 10.2188 27.0703C11.9688 27.4453 13.7344 27.7031 15.5234 27.8359C16.5547 29.2969 17.6875 30.6953 18.8984 32.0078C18.6484 32.25 18.3984 32.4844 18.1484 32.7031ZM20.0625 30.8047C19.2656 29.9453 18.4688 28.9922 17.6953 27.9688C18.4453 28 19.2188 28.0156 20 28.0156C20.8047 28.0156 21.5938 28 22.375 27.9609C21.6562 28.9531 20.8828 29.8984 20.0625 30.8047ZM30.2734 33.1484C30.2031 34.1016 29.7344 34.9922 28.9844 35.5938C27.7422 36.3125 25.0938 35.375 22.2344 32.9219C21.9062 32.6406 21.5781 32.3359 21.2422 32.0234C22.4375 30.7031 23.5391 29.3047 24.5391 27.8359C26.3281 27.6875 28.1094 27.4141 29.8672 27.0156C29.9453 27.3359 30.0156 27.6562 30.0781 27.9688C30.4609 29.6562 30.5234 31.4141 30.2734 33.1484ZM31.6953 24.75C31.4766 24.8203 31.2578 24.8906 31.0312 24.9531C30.4844 23.25 29.8125 21.5859 29.0391 19.9688C29.7891 18.375 30.4219 16.7344 30.9531 15.0547C31.3594 15.1719 31.75 15.2969 32.125 15.4219C35.7656 16.6719 38.3203 18.5312 38.3203 19.9531C38.3203 21.4844 35.5938 23.4609 31.6953 24.75ZM20 23.5781C21.9766 23.5781 23.5781 21.9766 23.5781 20C23.5781 18.0234 21.9766 16.4219 20 16.4219C18.0234 16.4219 16.4219 18.0234 16.4219 20C16.4219 21.9766 18.0234 23.5781 20 23.5781Z" fill="#38BDF8"/>
</svg>
